<?xml version="1.0" standalone="no"?>
<!DOCTYPE svg PUBLIC "-//W3C//DTD SVG 20010904//EN"
 "http://www.w3.org/TR/2001/REC-SVG-20010904/DTD/svg10.dtd">
<svg version="1.0" xmlns="http://www.w3.org/2000/svg"
 width="1024.000000pt" height="1024.000000pt" viewBox="0 0 1024.000000 1024.000000"
 preserveAspectRatio="xMidYMid meet">
<metadata>
Created by potrace 1.12, written by Peter Selinger 2001-2015
</metadata>
<g transform="translate(0.000000,1024.000000) scale(0.100000,-0.100000)"
fill="#060606" stroke="none">
<path d="M0 5120 l0 -5120 5120 0 5120 0 0 5120 0 5120 -5120 0 -5120 0 0
-5120z m7438 3492 c7 -5 28 -91 48 -198 46 -245 107 -508 149 -640 18 -57 28
-104 23 -104 -5 0 -34 19 -65 43 -30 23 -64 48 -74 56 -18 13 -19 4 -19 -324
l0 -338 73 6 c178 15 337 72 387 139 25 33 25 35 28 271 2 130 -1 237 -5 237
-4 0 -37 -23 -73 -51 -36 -27 -66 -45 -68 -40 -2 6 21 100 52 208 45 160 95
361 153 621 3 12 8 22 12 22 4 0 22 -62 40 -137 79 -327 114 -465 147 -576 19
-65 34 -123 32 -128 -2 -6 -29 10 -59 35 -31 25 -59 46 -63 46 -4 0 -6 -109
-5 -242 3 -279 -1 -304 -68 -378 -79 -89 -269 -166 -466 -192 -51 -6 -96 -14
-100 -18 -5 -4 -8 -689 -7 -1523 l1 -1515 -24 -28 c-33 -38 -88 -37 -126 0
l-26 26 -3 1524 -2 1523 -75 7 c-95 9 -254 48 -346 86 -117 49 -179 99 -215
175 -23 48 -24 58 -24 303 0 138 -4 252 -9 252 -4 0 -32 -19 -60 -41 -29 -23
-54 -39 -57 -36 -3 2 11 56 30 118 55 183 92 323 133 504 21 94 43 169 48 168
6 -1 33 -93 61 -205 29 -112 75 -293 103 -402 28 -110 49 -201 47 -203 -2 -2
-31 19 -64 47 -33 27 -63 50 -66 50 -3 0 -6 -105 -6 -234 l0 -234 26 -32 c33
-38 120 -83 211 -109 75 -20 250 -47 258 -39 3 3 4 154 3 336 l-3 331 -65 -54
c-36 -30 -70 -54 -77 -54 -8 -1 -4 27 13 87 87 310 130 511 169 784 9 65 37
92 73 70z m-1390 -314 c28 -31 76 -155 97 -252 14 -60 16 -107 12 -200 -8
-188 -59 -323 -163 -432 -85 -88 -185 -120 -286 -90 -119 34 -179 153 -133
263 20 48 36 65 122 130 108 81 178 187 232 349 21 61 31 112 31 151 0 93 41
130 88 81z m-1791 0 c6 -7 13 -49 17 -92 7 -92 49 -222 97 -302 49 -81 102
-138 188 -202 89 -67 115 -110 116 -192 0 -70 -28 -125 -84 -165 -40 -28 -49
-30 -129 -30 -105 1 -159 23 -232 96 -59 61 -101 140 -135 254 -36 121 -39
282 -7 398 25 87 64 189 87 224 17 25 66 32 82 11z m1543 -1247 c477 -47 835
-119 1220 -243 69 -22 128 -46 132 -52 12 -18 10 -196 -2 -196 -6 0 -27 7 -48
16 -72 30 -447 135 -606 168 -940 202 -2014 187 -2920 -40 -376 -94 -745 -250
-968 -408 -193 -137 -329 -312 -373 -482 -20 -77 -20 -252 0 -329 48 -185 173
-345 388 -499 297 -212 843 -392 1458 -480 307 -45 501 -58 924 -63 441 -6
672 6 1032 52 407 53 792 145 1061 253 l52 22 0 -124 0 -124 -41 -16 c-70 -28
-337 -102 -519 -144 -323 -75 -526 -106 -940 -144 -208 -19 -838 -16 -1105 5
-914 73 -1639 287 -2080 614 -201 149 -309 281 -390 477 -52 125 -69 228 -62
371 9 186 56 321 165 475 169 238 490 455 902 608 461 172 943 261 1650 306
30 2 237 2 460 1 317 -3 450 -8 610 -24z m-407 -341 c516 -22 956 -90 1370
-209 181 -52 365 -115 379 -129 5 -5 11 -265 15 -578 5 -489 4 -571 -8 -581
-27 -22 -222 -93 -379 -138 -383 -110 -746 -168 -1205 -196 -251 -15 -841 -6
-1090 16 -316 28 -733 95 -945 151 -613 165 -958 352 -1077 586 -39 75 -40
188 -2 268 92 195 450 422 892 566 428 138 1028 233 1572 247 55 2 134 4 175
5 41 1 177 -3 303 -8z m2412 -295 c191 -149 330 -342 385 -537 31 -106 38
-289 16 -398 -39 -189 -121 -338 -265 -480 -82 -82 -182 -164 -227 -188 -21
-11 -22 -10 -29 103 l-7 114 109 108 c59 60 123 133 141 165 112 190 123 437
28 634 -34 71 -138 209 -178 237 -13 9 -40 31 -60 51 l-38 35 0 121 0 121 23
-12 c12 -7 58 -40 102 -74z m-69 -427 c116 -127 139 -217 86 -329 -30 -62
-114 -169 -133 -169 -5 0 -9 112 -9 270 0 149 4 270 9 270 5 0 26 -19 47 -42z
m-5407 -1263 c33 -36 61 -70 61 -75 0 -5 -21 -37 -48 -72 -82 -108 -112 -194
-112 -318 0 -89 18 -161 61 -250 44 -88 199 -243 335 -333 108 -71 335 -184
474 -236 844 -311 2126 -395 3209 -210 1145 195 1813 648 1685 1142 -20 79
-59 154 -81 159 -40 9 -50 -2 -56 -57 -3 -29 -18 -78 -33 -109 -31 -63 -115
-172 -129 -169 -6 2 -11 85 -13 198 -2 176 -1 196 15 210 28 24 260 175 270
175 25 0 119 -122 168 -220 52 -103 67 -159 72 -280 6 -124 -5 -187 -50 -300
-95 -235 -392 -483 -770 -645 -492 -211 -970 -323 -1687 -397 -167 -17 -986
-17 -1165 0 -694 67 -1213 182 -1630 362 -287 123 -451 227 -611 385 -130 128
-202 233 -241 349 -24 72 -27 96 -27 221 -1 128 2 147 27 220 16 44 46 109 68
143 40 65 127 172 140 172 4 0 34 -29 68 -65z m363 -412 c129 -89 364 -199
586 -274 765 -259 2008 -322 3027 -154 285 47 615 132 791 203 29 11 55 18 58
15 8 -8 8 -166 0 -187 -16 -41 -453 -179 -759 -241 -351 -70 -625 -100 -1043
-115 -509 -19 -1100 28 -1581 126 -630 128 -1163 381 -1323 628 -32 50 -38 67
-38 113 0 53 12 91 34 105 6 4 45 -30 92 -81 45 -48 115 -110 156 -138z m-363
-886 l60 -58 -48 -72 c-74 -109 -104 -201 -105 -317 -1 -166 49 -273 199 -426
110 -112 225 -189 440 -294 319 -156 746 -277 1217 -344 394 -57 467 -61 1018
-61 348 0 556 4 640 13 741 76 1299 221 1729 448 147 78 243 146 336 239 166
167 224 335 180 523 -17 73 -58 157 -80 165 -42 17 -65 -19 -65 -102 l0 -60
-76 -91 c-42 -51 -77 -90 -79 -88 -1 2 -5 91 -9 199 l-7 196 78 49 c43 27 106
70 141 96 35 26 67 48 72 48 14 0 89 -91 135 -165 144 -231 139 -514 -14 -747
-370 -568 -1522 -928 -2966 -928 -781 0 -1463 99 -2006 291 -379 133 -609 261
-816 453 -127 118 -226 275 -258 409 -34 145 -12 345 54 475 33 66 147 215
161 210 4 -2 36 -29 69 -61z m212 -260 c136 -136 279 -227 510 -325 367 -157
773 -248 1379 -309 224 -22 1103 -26 1295 -5 535 58 838 116 1240 236 83 24
158 48 168 51 15 7 17 -2 17 -93 l0 -101 -57 -26 c-91 -42 -303 -110 -483
-155 -424 -107 -758 -153 -1229 -170 -642 -23 -1295 49 -1911 211 -437 115
-821 312 -986 507 -69 81 -88 122 -80 175 6 35 31 97 40 97 2 0 45 -42 97 -93z
m4979 -256 c0 -297 0 -300 -22 -326 -14 -15 -38 -28 -59 -31 -28 -5 -41 -1
-67 21 l-32 27 0 267 0 267 78 36 c42 20 83 37 90 37 9 1 12 -65 12 -298z"/>
<path d="M4258 6326 c-160 -44 -220 -238 -112 -365 51 -59 111 -84 189 -79 83
5 137 41 177 117 93 177 -64 379 -254 327z m117 -132 c35 -23 52 -83 35 -124
-26 -63 -112 -80 -161 -31 -85 85 26 221 126 155z"/>
<path d="M5853 6326 c-59 -19 -99 -50 -130 -104 -35 -60 -38 -156 -6 -217 72
-137 252 -167 360 -59 92 92 85 246 -15 336 -61 55 -127 69 -209 44z m126
-142 c27 -22 31 -32 31 -75 0 -66 -30 -99 -90 -99 -33 0 -48 6 -72 30 -28 28
-30 36 -25 78 10 86 91 121 156 66z"/>
<path d="M4747 5880 c-34 -27 -43 -77 -27 -149 45 -204 228 -342 435 -329 194
13 364 177 382 370 5 62 4 68 -20 92 -28 28 -52 32 -91 15 -28 -13 -40 -38
-56 -119 -14 -70 -42 -112 -106 -156 -66 -46 -144 -56 -225 -29 -91 30 -169
128 -169 212 0 40 -23 84 -51 98 -36 19 -41 19 -72 -5z"/>
<path d="M3036 5559 c-23 -21 -26 -28 -18 -50 28 -72 224 -138 317 -107 34 11
40 18 43 44 2 25 -3 37 -27 57 -45 37 -136 69 -217 74 -63 5 -73 3 -98 -18z"/>
<path d="M6937 5549 c-125 -29 -179 -103 -99 -136 47 -20 162 -13 217 14 53
25 81 64 66 91 -19 36 -102 50 -184 31z"/>
<path d="M6155 5251 c-96 -16 -165 -56 -165 -96 0 -71 245 -74 334 -4 32 25
34 63 4 83 -30 19 -109 27 -173 17z"/>
<path d="M3850 5237 c-19 -10 -25 -20 -25 -47 0 -33 4 -37 59 -64 49 -25 74
-31 145 -34 74 -3 91 0 119 18 66 41 28 94 -90 126 -66 17 -175 18 -208 1z"/>
<path d="M5011 5153 c-43 -22 -56 -43 -48 -74 10 -39 61 -62 147 -66 64 -4 82
-1 120 19 40 20 45 27 45 57 0 55 -37 75 -143 79 -69 2 -94 -1 -121 -15z"/>
</g>
</svg>
